<svg xmlns="http://www.w3.org/2000/svg" viewBox="0 0 64 64" id="internet"><path fill="#2b2f63" d="M54.33 30.82c-.25 0-.5-.09-.69-.28-11.94-11.94-31.36-11.94-43.3 0-.38.38-.99.38-1.37 0a.966.966 0 0 1 0-1.37c12.69-12.69 33.35-12.69 46.04 0a.966.966 0 0 1-.68 1.65z"></path><path fill="#2b2f63" d="M46.57 36.69c-.25 0-.5-.09-.69-.28-7.66-7.66-20.12-7.66-27.78 0-.38.38-.99.38-1.37 0a.966.966 0 0 1 0-1.37c8.41-8.41 22.11-8.41 30.52 0 .38.38.38.99 0 1.37-.18.19-.43.28-.68.28zm16.46-10.5c-.25 0-.5-.09-.69-.28-16.73-16.73-43.95-16.73-60.68 0-.38.38-.99.38-1.37 0a.966.966 0 0 1 0-1.37c17.49-17.49 45.94-17.49 63.42 0 .38.38.38.99 0 1.37-.19.18-.44.28-.68.28z"></path><path fill="#2b2f63" d="M32 36c-4.57 0-8.29 3.72-8.29 8.29 0 4.57 3.72 8.29 8.29 8.29 4.58 0 8.29-3.72 8.29-8.29 0-4.57-3.72-8.29-8.29-8.29zm0 14.64c-3.5 0-6.35-2.85-6.35-6.35 0-3.5 2.85-6.35 6.35-6.35 3.51 0 6.35 2.85 6.35 6.35 0 3.5-2.84 6.35-6.35 6.35z"></path><path fill="#efd299" d="M38.35 44.29c0 3.5-2.84 6.35-6.35 6.35-3.5 0-6.35-2.85-6.35-6.35 0-3.5 2.85-6.35 6.35-6.35 3.51 0 6.35 2.85 6.35 6.35z"></path></svg>