<svg xmlns="http://www.w3.org/2000/svg" viewBox="0 0 64 64" id="profile"><path fill="#fff" d="M54.4 54.9c0-12.4-10-22.4-22.4-22.4S9.6 42.5 9.6 54.9"></path><path fill="#dce3ff" d="M30.1 32.6c12.3 0 22.3 9.9 22.4 22.2h1.9c0-12.4-10-22.4-22.3-22.4-1 0-1.9.1-2.9.2h.9z"></path><path fill="none" stroke="#3749f4" stroke-miterlimit="10" stroke-width=".32" d="M54.4 54.9c0-12.4-10-22.4-22.4-22.4S9.6 42.5 9.6 54.9"></path><path fill="#dce3ff" d="M35.7 32.9l-2.3 3.9h-3.8 4.5l2.2-3.9z"></path><path fill="none" stroke="#3749f4" stroke-miterlimit="10" stroke-width=".32" d="M27.5 32.9l2.3 3.9h4.4l2.3-3.9"></path><path fill="#fff" d="M32 32.2c-6.3 0-11.4-5.1-11.4-11.4S25.7 9.4 32 9.4s11.4 5.1 11.4 11.4c0 6.3-5.1 11.4-11.4 11.4z"></path><path fill="#3749f4" d="M32 9.6c6.2 0 11.2 5 11.2 11.2S38.2 32 32 32s-11.2-5-11.2-11.2S25.8 9.6 32 9.6m0-.3c-6.4 0-11.5 5.2-11.5 11.5S25.6 32.3 32 32.3s11.5-5.2 11.5-11.5S38.4 9.3 32 9.3z"></path><path fill="#dce3ff" d="M32 9.6h-.6c6.2.4 10.9 5.7 10.5 11.8-.3 5.7-4.9 10.2-10.5 10.6h.6c6.2 0 11.2-5 11.2-11.2S38.2 9.6 32 9.6z"></path><path fill="#fff" d="M27.3 51.1l2.3-14.6h4.8l1.9 14.6-4.6 3.9z"></path><path fill="#3749f4" d="M34.2 36.6L36.1 51l-4.5 3.7-4.2-3.7 2.2-14.4h4.6m.3-.3h-5v.3L27.2 51v.2l.1.1 4.2 3.7.2.2.2-.2 4.5-3.7.1-.1V51l-1.9-14.4-.1-.3z"></path><path fill="#dce3ff" d="M34.2 36.6h-.6l1.9 14.3-4.2 3.5.4.4 4.5-3.7z"></path></svg>